<?xml version="1.0" encoding="utf-8"?>
<!-- Generator: Adobe Illustrator 27.8.0, SVG Export Plug-In . SVG Version: 6.00 Build 0)  -->
<svg version="1.0" id="katman_1" xmlns="http://www.w3.org/2000/svg" xmlns:xlink="http://www.w3.org/1999/xlink" x="0px" y="0px"
	 viewBox="0 0 841.89 595.28" style="enable-background:new 0 0 841.89 595.28;" xml:space="preserve">
<style type="text/css">
	.st0{fill-rule:evenodd;clip-rule:evenodd;fill:#FFFFFF;}
	.st1{fill:#E6E5E3;}
	.st2{fill:#110D0C;}
	.st3{fill:#48BEDB;}
	.st4{fill-rule:evenodd;clip-rule:evenodd;fill:#110D0C;}
</style>
<g>
	<path class="st0" d="M106.51,237.3h51.94c11.88,0,16.17,1.24,20.52,3.56c4.35,2.32,7.75,5.72,10.07,10.07
		c2.32,4.35,3.56,8.64,3.56,20.52v51.94c0,11.88-1.24,16.17-3.56,20.52c-2.32,4.35-5.72,7.75-10.07,10.07
		c-4.35,2.32-8.64,3.56-20.52,3.56h-51.94c-11.88,0-16.17-1.24-20.52-3.56c-4.35-2.32-7.75-5.72-10.07-10.07
		c-2.32-4.35-3.56-8.64-3.56-20.52v-51.94c0-11.88,1.24-16.17,3.56-20.52c2.32-4.35,5.72-7.75,10.07-10.07S94.63,237.3,106.51,237.3
		z"/>
	<path class="st1" d="M158.48,360.96h-51.97c-12.45,0-17.22-1.33-22.14-3.97c-4.96-2.64-8.83-6.51-11.47-11.47
		c-2.64-4.92-3.97-9.69-3.97-22.14v-51.94c0-12.45,1.33-17.22,3.97-22.14c2.64-4.96,6.51-8.83,11.47-11.47
		c4.92-2.64,9.69-3.97,22.14-3.97h51.94c12.45,0,17.22,1.33,22.14,3.97c4.96,2.64,8.83,6.51,11.47,11.47
		c2.64,4.92,3.97,9.69,3.97,22.14v51.94c0,12.45-1.33,17.22-3.97,22.14c-2.64,4.96-6.51,8.83-11.47,11.47
		c-4.92,2.64-9.69,3.97-22.14,3.97H158.48z M106.51,240.69c-12.07,0-15.57,1.37-18.93,3.14c-3.75,2-6.67,4.92-8.67,8.67
		c-1.78,3.34-3.14,6.86-3.14,18.93v51.94c0,12.07,1.37,15.57,3.14,18.93c2,3.75,4.92,6.67,8.67,8.67c3.34,1.78,6.86,3.14,18.93,3.14
		h51.94c12.07,0,15.56-1.37,18.93-3.14c3.75-2,6.67-4.92,8.67-8.67c1.78-3.34,3.14-6.86,3.14-18.93v-51.94
		c0-12.07-1.37-15.57-3.14-18.93c-2-3.75-4.92-6.67-8.67-8.67c-3.34-1.78-6.86-3.14-18.93-3.14
		C158.45,240.69,106.51,240.69,106.51,240.69z"/>
</g>
<g id="Layer_2-2">
	<g id="Layer_2-3">
		<g id="Layer_2-4">
			<g>
				<g>
					<path class="st2" d="M589.88,334.88c-17.22,0-29.73-12.55-29.73-29.86c0-17.31,12.52-29.86,29.73-29.86
						c17.22,0,29.61,12.55,29.61,29.86C619.49,322.33,607.04,334.88,589.88,334.88 M589.88,284.47c-11.12,0-18.87,8.45-18.87,20.55
						c0,12.1,7.75,20.55,18.87,20.55s18.74-8.45,18.74-20.55C608.62,292.92,600.9,284.47,589.88,284.47"/>
					<path class="st2" d="M740.1,334.88c-12.93,0-21.7-6.96-23.16-18.14c0-0.1,0-0.29-0.06-0.51c-0.06-0.54,0.38-1.02,0.92-1.02
						h8.42c0.48,0,0.86,0.35,0.92,0.79c0,0.19,0.06,0.35,0.06,0.44c1.14,5.81,5.88,9.18,12.83,9.18c6.35,0,10.99-3.21,10.99-7.78
						c0-6.89-6.61-7.97-13.6-9.12c-8.99-1.46-19.22-3.14-19.22-16.9c0-9.94,8.23-16.61,20.46-16.61s20.49,6.04,22.2,15.57
						c0.03,0.25,0.13,0.86,0.19,1.43c0.06,0.54-0.38,1.05-0.92,1.05h-8.45c-0.44,0-0.83-0.32-0.92-0.76
						c-0.1-0.38-0.16-0.79-0.19-0.92c-1.59-5.24-7.08-7.37-11.88-7.37c-6,0-10.07,2.73-10.07,7.27c0,6.16,6.26,7.08,12.86,8.04
						c9.43,1.37,20.17,2.92,20.17,18.07c0,10.51-8.48,17.31-21.6,17.31"/>
					<path class="st2" d="M647.73,333.99c-5.78,0-10.58-1.75-13.82-5.08c-3.4-3.49-5.05-8.54-4.86-14.93v-24.59h-0.1
						c-3.18-0.19-6.35-0.57-9.37-1.14c-0.22-0.03-0.38-0.16-0.51-0.35s-0.16-0.38-0.13-0.6l1.59-8.07c0.06-0.38,0.41-0.64,0.79-0.64
						c0.03,0,0.1,0,0.13,0c2.45,0.44,4.96,0.76,7.5,0.92h0.1V261.5c0-0.44,0.38-0.79,0.83-0.79h9.02c0.44,0,0.79,0.35,0.79,0.79
						v17.95h0.1c4.86-0.41,9.31-1.33,14.04-2.89c0.1,0,0.16-0.03,0.25-0.03c0.35,0,0.64,0.22,0.76,0.54l2.67,7.78
						c0.06,0.19,0.06,0.41-0.03,0.64c-0.1,0.19-0.25,0.35-0.48,0.41c-5.75,1.91-11.24,2.99-17.22,3.43h-0.06v24.65
						c0,6.45,3.62,10.13,9.88,10.13h5.91c0.44,0,0.79,0.35,0.79,0.79v8.32c0,0.44-0.35,0.79-0.79,0.79h-7.75L647.73,333.99z"/>
					<path class="st2" d="M543.35,333.99c-0.44,0-0.79-0.35-0.79-0.79V300.6c0-8.96-5.27-14.96-13.12-14.96
						c-8.74,0-15.06,7.15-15.06,16.99v30.53c0,0.44-0.35,0.79-0.79,0.79h-10.01c-0.44,0-0.79-0.35-0.79-0.79v-56.32
						c0-0.44,0.35-0.79,0.79-0.79h10.01c0.44,0,0.79,0.35,0.79,0.79v8.35c3.27-6.38,9.82-10.01,18.14-10.01
						c12.96,0,21.66,9.34,21.66,23.25v34.75c0,0.44-0.35,0.79-0.79,0.79h-10.01H543.35z"/>
					<path class="st2" d="M481.69,334.02c-0.44,0-0.79-0.35-0.79-0.79v-6.07l-0.16,0.22c-3.08,4.42-9.78,7.05-17.88,7.05
						c-16.55,0-27.25-11.53-27.25-29.41c0-17.88,10.64-29.41,27.16-29.41c7.43,0,14.83,3.81,18.01,7.4l0.13,0.16v-29.83
						c0-0.44,0.35-0.79,0.79-0.79h9.18c0.44,0,0.79,0.35,0.79,0.79v79.86c0,0.44-0.35,0.79-0.79,0.79h-9.18l0,0V334.02z
						 M464.19,284.91c-10.61,0-17.73,8.1-17.73,20.14c0,12.04,7.12,20.14,17.73,20.14c10.61,0,17.85-8.1,17.85-20.14
						C482.04,293.01,474.86,284.91,464.19,284.91"/>
					<path class="st2" d="M265.97,334.88c-17.41,0-35.55-11.47-35.55-37.07c0-25.6,18.33-37.07,35.96-37.07
						c14.29,0,24.97,7.97,29.29,21.85c0.1,0.29,0.03,0.57-0.1,0.83c-0.13,0.25-0.41,0.41-0.7,0.48l-8.32,1.37c0,0-0.1,0-0.16,0
						c-0.41,0-0.76-0.25-0.95-0.6c-4.26-9.75-10.13-14.1-19.06-14.1c-14.8,0-24.97,10.7-24.97,27.29
						c0,16.58,10.39,27.57,24.84,27.57c11.5,0,20.49-6.92,20.49-17.22c0-1.27,0-0.48-0.06-0.98c-2.06,0.25-3.94,0.35-5.72,0.35
						c-3.81,0-6.92-0.54-10.74-1.4c-0.54-0.13-0.89-0.67-0.76-1.21l1.49-7.56c0.1-0.48,0.51-0.83,1.02-0.83c0.06,0,0.16,0,0.22,0
						c3.43,0.76,6.92,1.18,10.32,1.18c5.18,0,10.36-0.86,15.82-2.64c0.1-0.03,0.22-0.06,0.32-0.06c0.44,0,0.83,0.29,0.98,0.7
						l2.32,7.34c0.1,0.25,0.06,0.57-0.06,0.79c-0.13,0.25-0.38,0.44-0.64,0.51c-1.24,0.32-2.57,0.6-3.72,0.86l-0.92,0.19l0.73,27.51
						c0,0.29-0.1,0.54-0.29,0.73s-0.44,0.32-0.73,0.32h-7.91c-0.57,0-1.02-0.48-1.02-1.02v-7.37c-4.38,5.88-12.01,9.28-21.41,9.28"
						/>
					<path class="st2" d="M685.75,334.88c-23.54-0.64-29.51-19.73-28.56-31.38c1.75-20.93,16.8-28.33,27.79-28.33
						c26.02,0,27.1,29.13,27.1,29.41c0,0.41-0.25,0.76-0.64,0.89c-12.13,4.32-21.66,5.56-29.89,5.56c-4.16,0-8.32-0.73-13.18-1.65
						c-0.13,0-0.25,0.1-0.22,0.22c1.49,9.53,9.88,16.07,17.82,15.98c9.21-0.1,13.72-3.88,15.6-9.82c0.1-0.35,0.41-0.6,0.76-0.6h9.5
						c0.25,0,0.48,0.13,0.64,0.32c0.16,0.19,0.22,0.44,0.16,0.67c-2.45,11.18-12.71,19.03-26.91,18.71 M683.24,284.24
						c-9.72,0.92-14.14,10.07-15.09,14.99c0,0.1,0,0.19,0.03,0.29c0.03,0.1,0.13,0.13,0.25,0.16c12.71,3.34,24.36,1.4,32.37-0.7
						c0.1,0,0.19-0.1,0.22-0.16c0.03-0.06,0.06-0.16,0.03-0.25c-0.22-3.68-4.83-15.53-17.85-14.29"/>
					<path class="st2" d="M400.94,334.94c-17.22,0-29.73-12.55-29.73-29.86s12.52-29.86,29.73-29.86s29.61,12.55,29.61,29.86
						S418.1,334.94,400.94,334.94 M400.94,284.53c-11.12,0-18.87,8.45-18.87,20.55s7.75,20.52,18.87,20.52s18.74-8.42,18.74-20.52
						S411.96,284.53,400.94,284.53"/>
					<path class="st2" d="M336.4,334.94c-17.22,0-29.73-12.55-29.73-29.86s12.52-29.86,29.73-29.86S366,287.77,366,305.08
						S353.55,334.94,336.4,334.94 M336.4,284.53c-11.12,0-18.87,8.45-18.87,20.55s7.75,20.52,18.87,20.52s18.74-8.42,18.74-20.52
						S347.42,284.53,336.4,284.53"/>
				</g>
				<g>
					<path class="st3" d="M145.93,266.9L145.93,266.9H99.24l0,0c-2.7,0-3.4,0.7-3.4,3.4s0.7,3.4,3.4,3.4l0,0h46.69l0,0
						c2.7,0,3.4-0.7,3.4-3.4S148.63,266.9,145.93,266.9z"/>
					<path class="st3" d="M142.18,325.95L142.18,325.95c-1.18,1.08-7.43,6.38-15.37,4.92c-5.08-0.92-8.26-4.16-9.31-5.21
						c-5.08-5.18-5.59-11.69-5.59-14.23c0-1.52-0.98-2.86-2.45-3.3c-1.46-0.41-3.02,0.19-3.84,1.46c-1.27,2.06-2.89,3.78-4.8,5.15
						c-1.05,0.76-2.19,1.4-3.4,1.91l0,0c-2.48,1.08-2.86,2-1.78,4.48c1.05,2.48,2,2.86,4.48,1.78l0,0c1.65-0.7,3.24-1.59,4.7-2.64
						c0.48-0.35,0.95-0.7,1.4-1.08c1.02,3.56,2.89,7.59,6.45,11.21c1.43,1.43,5.72,5.84,12.93,7.15c1.37,0.25,2.67,0.35,3.97,0.35
						c9.15,0,15.85-5.69,17.25-6.96l0,0c2-1.81,2.03-2.83,0.22-4.8s-2.83-2.03-4.8-0.22L142.18,325.95z"/>
					<path class="st3" d="M137.35,290.47L137.35,290.47L137.35,290.47H99.24c-2.7,0-3.4,0.7-3.4,3.4c0,2.7,0.7,3.4,3.4,3.4l0,0
						h28.62h9.5c2.7,0,3.4-0.7,3.4-3.4C140.75,291.17,140.05,290.47,137.35,290.47z"/>
				</g>
				<path class="st4" d="M177.19,268.23c1.49-4.13-0.64-8.74-4.76-10.23s-8.74,0.64-10.23,4.76l-13.75,37.77
					c-0.48,1.33-0.7,2.76-0.67,4.16l0.41,13.25c0.06,2.22,2.8,3.21,4.29,1.56l8.83-9.88c0.95-1.05,1.68-2.29,2.16-3.62l13.75-37.77
					H177.19z"/>
			</g>
		</g>
	</g>
</g>
<path class="st2" d="M755,260.67h7.18v1.59h-2.7v7.43h-1.75v-7.43h-2.7v-1.59H755z M763.64,260.67h2.06l2.64,6.51l2.64-6.51h2.06
	v9.02h-1.65v-5.84l-2.35,5.84h-1.4l-2.32-5.84v5.84h-1.65v-9.02H763.64z"/>
</svg>
